<?xml version="1.0" standalone="no"?>
<!DOCTYPE svg PUBLIC "-//W3C//DTD SVG 20010904//EN"
 "http://www.w3.org/TR/2001/REC-SVG-20010904/DTD/svg10.dtd">
<svg version="1.0" xmlns="http://www.w3.org/2000/svg"
 width="512.000000pt" height="512.000000pt" viewBox="0 0 512.000000 512.000000"
 preserveAspectRatio="xMidYMid meet">
<metadata>
Created by potrace 1.14, written by Peter Selinger 2001-2017
</metadata>
<g transform="translate(0.000000,512.000000) scale(0.100000,-0.100000)"
fill="#000000" stroke="none">
<path d="M1832 3625 c-304 -66 -533 -278 -607 -563 -90 -349 31 -731 321
-1013 304 -294 862 -653 1015 -652 159 1 729 371 1020 662 233 233 339 478
339 779 -1 245 -66 408 -231 574 -75 75 -100 93 -190 137 -134 64 -198 81
-340 88 -147 7 -235 -11 -361 -74 -64 -32 -112 -65 -164 -115 l-74 -71 -72 69
c-86 81 -201 145 -314 174 -91 24 -246 26 -342 5z m210 -242 c22 -20 23 -61 1
-85 -21 -23 -89 -24 -115 -1 -22 20 -23 61 -1 85 21 23 89 24 115 1z m1270
-14 c21 -11 32 -43 24 -73 -8 -32 -46 -47 -89 -35 -45 12 -59 30 -55 71 5 52
58 68 120 37z m-272 -9 c41 -41 22 -76 -61 -115 -31 -14 -80 -46 -109 -71 -40
-34 -58 -43 -74 -38 -35 11 -46 25 -46 59 0 26 10 42 50 79 52 49 159 106 198
106 12 0 31 -9 42 -20z m-1288 -57 c35 -32 23 -65 -46 -126 -47 -42 -74 -76
-97 -123 -39 -78 -68 -96 -108 -66 -36 26 -37 54 -7 117 34 69 82 129 142 176
53 42 87 48 116 22z"/>
</g>
</svg>
